# xmcd
# 
# Track frame offsets:
#     150
#     36668
#     76544
#     97578
#     107983
#     139846
#     176972
#     208703
#     234274
# 
# Disc length: 3574
# 
# Revision: 2
# Processed by: cddbd v1.5.2PL0 Copyright (c) Steve Scherf et al.
# Submitted via: fre:ac v1.0.27
# 
DISCID=710df409
DTITLE=Metallica - Bergen, Norway Live 2015
DYEAR=2015
DGENRE=
TTITLE0=One
TTITLE1=Master Of Puppets
TTITLE2=The Memory Remains
TTITLE3=Kirk Solo #2
TTITLE4=Fade to Black
TTITLE5=Seek and Destroy
TTITLE6=Whiskey in the Jar
TTITLE7=Nothing Else Matters
TTITLE8=Enter Sandman
EXTD=
EXTT0=
EXTT1=
EXTT2=
EXTT3=
EXTT4=
EXTT5=
EXTT6=
EXTT7=
EXTT8=
PLAYORDER=
